<?xml version="1.0" encoding="utf-8"?>
<!-- Generator: Adobe Illustrator 19.2.1, SVG Export Plug-In . SVG Version: 6.00 Build 0)  -->
<svg version="1.1" id="Vrstva_1" xmlns="http://www.w3.org/2000/svg" xmlns:xlink="http://www.w3.org/1999/xlink" x="0px" y="0px"
	 viewBox="0 0 283.5 283.5" style="enable-background:new 0 0 283.5 283.5;" xml:space="preserve">
<style type="text/css">
	.st0{fill:#2196F3;}
	.st1{fill:#FFC107;}
	.st2{fill:#311B92;stroke:#311B92;stroke-width:0.22;stroke-miterlimit:22.93;}
	.st3{fill:none;stroke:#311B92;stroke-width:0.22;stroke-miterlimit:22.93;}
	.st4{fill:#FFFFFF;stroke:#311B92;stroke-width:0.5;stroke-miterlimit:22.93;}
	.st5{fill:#FFFFFF;stroke:#311B92;stroke-width:0.22;stroke-miterlimit:22.93;}
	.st6{fill:none;stroke:#311B92;stroke-width:2.27;stroke-miterlimit:22.93;}
</style>
<title>PEK Cloud</title>
<g>
	<path class="st0" d="M253.7,185.6c0-2.3-0.2-4.6-0.7-6.8l0,0c-1.8-8.5-6.7-16-13.8-21l-0.1-0.2c-11.8-8.2-27.4-8.1-39.1,0.1
		c-4.6-4.3-11.6-4.9-16.9-1.6c-8.1-14.4-26.2-19.5-40.6-11.4c-4,2.2-7.4,5.4-10,9.1c-8-8.2-20.5-9.8-30.3-4c0-8.9-7.3-16-16.1-16
		c-8.9,0-16,7.3-16,16.1v0.4c-19.2-2.9-37.1,10.3-39.9,29.5s10.3,37.1,29.5,39.9c1.7,0.3,3.5,0.4,5.2,0.4c7.2,0,14.3-2.3,20.1-6.5
		c5.3,7.3,13.8,11.6,22.8,11.6c0.2,0,0.5,0,0.7,0c3.6,10.2,14.8,15.6,25,12c5.7-2,10.2-6.6,12.1-12.3c4.6,8.7,15.3,12,24,7.5
		c4.7-2.4,8-6.8,9.1-12c1.2,0.2,2.5,0.3,3.8,0.3c6.7,0,13.1-2.5,18.1-6.9c2.3,1.6,4.8,2.8,7.4,3.8h0.1c0.9,0.3,1.9,0.6,2.9,0.9
		l0.3,0.1c0.5,0.1,0.9,0.2,1.4,0.3l0.7,0.1c0.7,0.1,1.3,0.2,2,0.3l1.1,0.1l1.1,0.1c0.5,0,1,0,1.4,0.1h0.6c18.8,0,34.1-15.2,34.1-34
		c0,0,0,0,0,0v-0.1L253.7,185.6z"/>
	<path class="st1" d="M94.5,98.2H46.3c-2.4,32.3,10.1,56,28.3,76h19.9V98.2C94.5,98.2,94.5,98.2,94.5,98.2z"/>
	<path class="st1" d="M185.9,97.3h51.2c2.6,32.3-9,56.7-28.3,76.8H186V97.3H185.9L185.9,97.3z"/>
	<path class="st2" d="M94.7,77.4h91.1v-1.7c-10-1.8-10.9-8.1-10.6-15c-3.9,0.1-8.6-2.9-13.7-7.8h-39c-4.3,5.4-9.7,7.4-15.2,8.5
		c3.2,6-9.2,15.5-12.6,15.3L94.7,77.4L94.7,77.4L94.7,77.4z"/>
	<path class="st1" d="M94.6,174.5h91.1l0.2-98.1l-13.6,0.1c-4.1-0.2-6.8-0.7-6.5-2.3h-5.1l0.1-2.7c-5.5-0.3-9.1-1.4-9.6-3.5
		c0.1-2.1,0-4.2,0.1-6.4c-0.6-2.1-1.8-3.9-3.4-5.3c-1.1-1.2-1.7-4.5-1.6-6.5l1.9-0.1c-2.9-0.3-5.1-1.2-5.8-3.4
		c-1.5-1.8-3.1-1.8-4.6,0c-1.1,1.7-3.1,2.9-5.7,3.4h1.9c0.1,2-0.3,4.1-1,6c-2.1,2.9-3.8,4.2-3.7,5.8v6.8c-1.5,2.6-5,3.3-9.8,3.3v2.8
		h-4.9c-0.7,1.8-3.4,3.3-6.5,3l-13.6,0.1L94.6,174.5L94.6,174.5L94.6,174.5z"/>
	<path class="st3" d="M235.1,85.6L186,85.7c0.1-2.8-0.1-7,0-9.9c-10.9-2.6-10.5-8.2-10.7-15.1c-5.8,0.1-9.9-4.6-13.7-7.7
		c-5-0.1-10.1,0.1-15.1,0c-0.1-1-0.1-2.2-0.2-3.2h1.9c-3.2-0.4-5.1-1.6-5.8-3.3c-1.6-1.9-3.1-1.9-4.7,0c-1.4,1.8-3.5,2.9-5.7,3.2
		c0.7,0.1,1.3-0.2,2-0.1c-0.1,1.2-0.1,2.3-0.2,3.5h-11.2c-3.5,3.7-7.5,7.1-15.4,8.4c3.6,5.9-9.1,15.7-12.5,15.4
		c-0.1,3,0.1,6.3,0,9.2H48.3"/>
	<path class="st4" d="M140.1,49.7c1.6,0,2.9,1.3,2.9,2.9c0,1.6-1.3,2.9-2.9,2.9s-2.9-1.3-2.9-2.9C137.3,51,138.5,49.7,140.1,49.7
		C140.1,49.7,140.1,49.7,140.1,49.7L140.1,49.7z"/>
	<polygon class="st5" points="129.3,61.6 107.1,61.6 108.1,62.8 129.3,62.8 	"/>
	<polygon class="st5" points="175.2,61.5 151.4,61.6 151.4,62.8 175.2,62.8 	"/>
	<path class="st2" d="M138.3,71.1v-6.9c0.3-2.4,3.8-3.4,4,0v7.1c0.5,0.5,1.2,0.9,1.9,1h-7.9C137,71.9,137.7,71.6,138.3,71.1
		L138.3,71.1L138.3,71.1z"/>
	<path class="st3" d="M94.7,77.5h12.8c3.2,0.3,5.8-0.3,7.2-2.9h4.8v-3.1c3.7-0.2,7.6-0.1,9.8-3.1v-6.8c2.8-0.3,5.4-1.5,7.4-3.4h6.8
		c2.3,1.8,5,3,7.9,3.5l0.1,6.4c0.6,1.3,0.9,2.6,9.4,3.5v2.6l5,0.1c-0.3,2.1,6.9,2.3,7.1,2.2c6.8,0,6.1,0,12.9,0.1 M94.9,87.7h17.5
		L139.7,75l26.5,12.6h19.5 M94.8,90h17.5l27.4-12.7L166.2,90h19.5"/>
	<path class="st2" d="M135.5,119.5h9.6v-17.2H145c0-2.6-2.1-4.8-4.8-4.8c-2.6,0-4.8,2.1-4.8,4.8l0,0L135.5,119.5L135.5,119.5
		L135.5,119.5z"/>
	<path class="st2" d="M151.5,119.5h9.6v-17.2H161c0-2.6-2.1-4.8-4.8-4.8c-2.6,0-4.8,2.1-4.8,4.8l0,0L151.5,119.5L151.5,119.5
		L151.5,119.5z"/>
	<path class="st2" d="M119.3,119.5h9.6v-17.2h-0.1c0-2.6-2.1-4.8-4.8-4.8s-4.8,2.1-4.8,4.8l0,0L119.3,119.5
		C119.3,119.5,119.3,119.5,119.3,119.5z"/>
	<polygon class="st2" points="169.1,100.5 178.6,100.5 178.6,119.3 169.1,119.3 	"/>
	<polygon class="st2" points="102.2,100.5 111.7,100.5 111.7,119.3 102.2,119.3 	"/>
	<path class="st3" d="M134.5,174.5h11.7v-16.6h-0.1c-0.1-2.6-2.6-4.6-5.7-4.6s-5.6,2-5.7,4.6l0,0L134.5,174.5L134.5,174.5
		L134.5,174.5z M128.7,145.2h23.4v29.3h-23.4V145.2L128.7,145.2L128.7,145.2z M128.7,145.2h23.6v-3.9h-23.6V145.2L128.7,145.2z"/>
	<polygon class="st2" points="136.8,128.1 142.6,128.1 142.6,139.6 136.8,139.6 	"/>
	<polygon class="st2" points="171.2,128.1 177,128.1 177,139.6 171.2,139.6 	"/>
	<polygon class="st2" points="153.3,128.1 159.1,128.1 159.1,139.6 153.3,139.6 	"/>
	<polygon class="st2" points="120.7,128.1 126.6,128.1 126.6,139.6 120.7,139.6 	"/>
	<polygon class="st2" points="104,128.1 109.8,128.1 109.8,139.6 104,139.6 	"/>
	<path class="st2" d="M152.2,174.5h8.9v-15.9H161c0-2.4-2-4.3-4.4-4.3c-2.4,0-4.3,1.9-4.3,4.3l0,0L152.2,174.5L152.2,174.5
		L152.2,174.5z"/>
	<path class="st2" d="M119.8,174.5h8.8v-15.9h-0.1c0-2.4-1.9-4.4-4.3-4.4c-2.4,0-4.4,1.9-4.4,4.3c0,0,0,0,0,0l0,0L119.8,174.5
		L119.8,174.5L119.8,174.5z"/>
	<path class="st3" d="M94.7,86.5v87.8 M185.7,85.6l0.1,88.9"/>
	<path class="st2" d="M173.4,78.9c-1.2,0.1-2,1.2-1.9,2.3c0.1,1.2,1.2,2,2.3,1.9l0,0c1.1-0.1,1.9-1,1.9-2.1c0-1.2-0.9-2.1-2.1-2.1
		C173.6,78.9,173.5,78.9,173.4,78.9C173.4,78.9,173.4,78.9,173.4,78.9z"/>
	<path class="st2" d="M107.4,78.9c-1.2,0.1-2,1.2-1.9,2.3c0.1,1.2,1.2,2,2.3,1.9l0,0c1.1-0.1,1.9-1,1.9-2.1c0-1.2-0.9-2.1-2.1-2.1
		C107.5,78.9,107.4,78.9,107.4,78.9C107.4,78.9,107.4,78.9,107.4,78.9z"/>
	<path class="st6" d="M74.7,174c-23.3-23-33.3-56.2-26.4-88.2"/>
	<path class="st6" d="M235.4,85.8c6.9,32.1-3.2,65.4-26.6,88.4"/>
	<line class="st3" x1="208.2" y1="174.4" x2="74.6" y2="174.4"/>
	<path class="st2" d="M94.7,86H48.4c-1.2,4-1.8,8.1-1.9,12.3h48.3V86L94.7,86z"/>
	<path class="st2" d="M185.9,85.5H235c1.2,4,1.9,8.1,2,12.3h-51.2V85.5H185.9z"/>
	<path class="st0" d="M229.5,169.5c-10.3-3.5-21.6-1.8-30.5,4.4c-4.6-4.3-11.6-4.9-16.9-1.6c-8.1-14.4-26.2-19.5-40.6-11.4
		c-4,2.2-7.4,5.4-10,9.1c-8-8.2-20.5-9.8-30.3-4c0-8.9-7.3-16-16.1-16c-8.9,0-16,7.3-16,16.1v0.6c-1.7-0.3-3.5-0.4-5.3-0.4
		c-3.3,0-6.6,0.5-9.8,1.4v25h175.5V169.5z"/>
</g>
</svg>
