<svg xmlns="http://www.w3.org/2000/svg" viewBox="0 0 226.77 226.77"><defs><style>.cls-1{fill:none;}.cls-2{fill:#ff006e;}.cls-3{fill:#8400c5;}.cls-4{fill:#fdfbfc;}.cls-5{fill:#e20614;}.cls-6{fill:#00a2e2;}.cls-7{fill:#f29100;}.cls-8{fill:#43a22b;}</style></defs><title>bakalari</title><g id="Layer_2" data-name="Layer 2"><g id="Ikonky"><g id="bakalari"><rect id="border" class="cls-1" width="226.77" height="226.77"/><g id="logo"><path class="cls-2" d="M107.61,20.44c2.06-1.22,4.14-2.39,6.3-3.43,0,8.4.13,16.8-.07,25.2C93.19,54,72.67,66,52.13,77.92q-10.85-6.57-22-12.69C55.94,50.21,81.83,35.41,107.61,20.44Z"/><path class="cls-3" d="M113.91,17c27.65,15.81,55.17,31.86,82.8,47.72v1c-7.2,3.89-14.22,8.09-21.29,12.22Q144.64,60,113.84,42.21C114,33.81,113.92,25.41,113.91,17Z"/><path class="cls-4" d="M52.13,77.92c20.54-12,41.06-24,61.71-35.71Q144.66,60,175.42,77.9c.12,8.53.45,17.08.12,25.62-5.72,3.48-11.72,6.51-17.38,10.12,5.2,3.18,10.52,6.16,15.76,9.29.64.52,1.75.93,1.67,1.94.3,8.16-.13,16.32-.1,24.47-20.59,11.78-41.08,23.73-61.65,35.53-2.47-1.58-5-3-7.62-4.44-13.62-7.62-27.07-15.54-40.6-23.31-4.43-2.62-9-5-13.3-7.87.5-5.49-.42-11-.28-16.45C52.1,114.51,51.91,96.21,52.13,77.92Z"/><path class="cls-5" d="M30.18,65.23q11.1,6.12,22,12.69c-.22,18.29,0,36.59-.09,54.88-.14,5.49.78,11,.28,16.45-7.68,3.62-14.66,8.53-22.26,12.27C30.17,129.42,29.94,97.33,30.18,65.23Z"/><path class="cls-6" d="M175.42,77.9c7.07-4.13,14.09-8.33,21.29-12.22v95.74c-7.18-3.83-14.12-8.1-21.22-12.08,0-8.15.4-16.31.1-24.47.08-1-1-1.42-1.67-1.94-5.24-3.13-10.56-6.11-15.76-9.29,5.66-3.61,11.66-6.64,17.38-10.12C175.87,95,175.54,86.43,175.42,77.9Z"/><path class="cls-2" d="M74.35,90.53C87.63,83.17,100.64,75.35,113.92,68c0,15.08,0,30.14,0,45.22l-.47.29C100.71,105.41,87.28,98.39,74.35,90.53Z"/><path class="cls-3" d="M113.92,68c13,7.57,26.11,15,39,22.68-5.61,3.59-11.45,6.84-17.23,10.16-7.31,4-14.42,8.42-21.77,12.38C113.91,98.12,114,83.06,113.92,68Z"/><path class="cls-5" d="M74.11,126.27c.27-11.9-.18-23.83.24-35.74,12.93,7.86,26.36,14.88,39.14,23-13,7.72-26.13,15.11-39.17,22.73l-.56.33C73.71,133.12,73.82,129.69,74.11,126.27Z"/><path class="cls-6" d="M114,113.2c7.35-4,14.46-8.36,21.77-12.38,0,8.49.06,17-.06,25.48-7.29-4.11-14.46-8.43-21.78-12.49Z"/><path class="cls-7" d="M113.49,113.49l.47-.29-.07.61c-.34,15.12-.08,30.26-.13,45.39-8.11-4.37-15.9-9.37-23.94-13.87-5.15-3.07-10.49-5.81-15.5-9.11C87.36,128.6,100.52,121.21,113.49,113.49Z"/><path class="cls-8" d="M113.89,113.81c7.32,4.06,14.49,8.38,21.78,12.49,5.71,3.46,11.64,6.54,17.25,10.13-12.92,7.81-26.13,15.13-39.16,22.77C113.81,144.07,113.55,128.93,113.89,113.81Z"/><path class="cls-7" d="M30.06,161.52c7.6-3.74,14.58-8.65,22.26-12.27,4.29,2.86,8.87,5.25,13.3,7.87,13.53,7.77,27,15.69,40.6,23.31,2.58,1.4,5.15,2.86,7.62,4.44-.21,8.3-.11,16.59,0,24.89h-1C86,194,59,178.7,32.14,163.05,31.43,162.57,30.75,162.05,30.06,161.52Z"/><path class="cls-8" d="M113.84,184.87c20.57-11.8,41.06-23.75,61.65-35.53,7.1,4,14,8.25,21.22,12.08v1q-37.35,21.51-74.68,43.1c-2.43,1.35-4.8,2.81-7.16,4.29h-1.08C113.73,201.46,113.63,193.17,113.84,184.87Z"/></g></g></g></g></svg>