<svg xmlns="http://www.w3.org/2000/svg" viewBox="0 0 226.77 226.77"><defs><style>.cls-1{fill:none;}.cls-2{fill:#fff;}.cls-3{fill:#c7c7c7;}.cls-4{fill:#4483ef;}.cls-5{fill:#3664d0;}</style></defs><title>calendar</title><g id="Layer_2" data-name="Layer 2"><g id="Ikonky"><g id="calendar"><rect id="border" class="cls-1" width="226.77" height="226.77"/><g id="logo"><path id="_Path_" data-name="&lt;Path&gt;" class="cls-2" d="M68.09,24.06a7.43,7.43,0,0,1,4.4.39,6.82,6.82,0,0,1,3.94,4.83,7.66,7.66,0,0,1-.58,4.41,6.76,6.76,0,0,1-7.64,3.64,7,7,0,0,1-5.29-6.74A6.84,6.84,0,0,1,68.09,24.06Z"/><path id="_Path_2" data-name="&lt;Path&gt;" class="cls-2" d="M155.41,24.05a7.5,7.5,0,0,1,4.44.44,7,7,0,0,1,4,5.83,7.18,7.18,0,0,1-2,5.18,6.72,6.72,0,0,1-11-2,8.17,8.17,0,0,1-.51-4.27A6.9,6.9,0,0,1,155.41,24.05Z"/><path id="_Path_3" data-name="&lt;Path&gt;" class="cls-2" d="M146.65,127.27q5.17,0,10.36,0c0,13.73,0,27.46,0,41.18H146.67C146.66,154.72,146.7,141,146.65,127.27Z"/><g id="_Group_" data-name="&lt;Group&gt;"><g id="_Group_2" data-name="&lt;Group&gt;"><path id="_Compound_Path_" data-name="&lt;Compound Path&gt;" class="cls-3" d="M34.69,18.06a16.15,16.15,0,0,1,6.93-1H186.76a13.72,13.72,0,0,1,13.8,14.13c0,4.7.05,9.41,0,14.11a13.82,13.82,0,0,0-4.9-.77H31.4a15.15,15.15,0,0,0-5.14.76c-.07-4.89,0-9.77-.05-14.66A13.71,13.71,0,0,1,34.69,18.06Zm33.4,6a6.84,6.84,0,0,0-5.17,6.53,7,7,0,0,0,5.29,6.74,6.76,6.76,0,0,0,7.64-3.64,7.66,7.66,0,0,0,.58-4.41,6.82,6.82,0,0,0-3.94-4.83A7.43,7.43,0,0,0,68.09,24.06Zm87.32,0a6.9,6.9,0,0,0-5.11,5.19,8.17,8.17,0,0,0,.51,4.27,6.72,6.72,0,0,0,11,2,7.18,7.18,0,0,0,2-5.18,7,7,0,0,0-4-5.83A7.5,7.5,0,0,0,155.41,24.05Z"/></g><path id="_Path_4" data-name="&lt;Path&gt;" class="cls-3" d="M154.6,86.07a5.17,5.17,0,0,1,2.44-.24c0,13.77,0,27.55,0,41.32v.12q-5.19,0-10.36,0v-.12q0-14.28,0-28.56c-6.89,2.28-13.76,4.61-20.65,6.89,0-3.11,0-6.22,0-9.33C135.51,92.76,145.07,89.44,154.6,86.07Z"/><path id="_Path_5" data-name="&lt;Path&gt;" class="cls-3" d="M70.34,91a26.58,26.58,0,0,1,15.1-5.19c5.35-.19,10.89.68,15.57,3.39a19.29,19.29,0,0,1,8.22,9.47,25.74,25.74,0,0,1,1.62,12.52c-1,6.76-6.25,12.21-12.35,14.91a16.27,16.27,0,0,1,2.53,1,7.29,7.29,0,0,1-1.62.14c-7.19,0-14.38,0-21.57,0,0-1.57-.06-3.13,0-4.69,5.18-.12,10.65.51,15.5-1.76a12.63,12.63,0,0,0,7.52-9.8c.48-4.1.06-8.58-2.36-12a12.29,12.29,0,0,0-8.39-4.75C85.78,93.57,81,94,77.32,96.66A13.6,13.6,0,0,0,71.88,108c-3.32.09-6.65,0-10,0a23.68,23.68,0,0,1,.68-5.43A21,21,0,0,1,70.34,91Z"/></g><g id="_Group_3" data-name="&lt;Group&gt;"><path id="_Path_6" data-name="&lt;Path&gt;" class="cls-4" d="M26.26,45.26a15.15,15.15,0,0,1,5.14-.76H195.63a13.72,13.72,0,0,1,14,11.93,14.56,14.56,0,0,0-6.15-8.63,14.1,14.1,0,0,0-7.54-2.2q-82.38.06-164.76,0A13.94,13.94,0,0,0,20.2,50.56a22.85,22.85,0,0,0-2.85,4.75A13.77,13.77,0,0,1,26.26,45.26Z"/><path id="_Path_7" data-name="&lt;Path&gt;" class="cls-4" d="M146.45,127.17l.2,0v.12c0,13.73,0,27.45,0,41.18H157c0-13.72,0-27.45,0-41.18v-.12h.17a43.51,43.51,0,0,0,4.57.09q19.41,0,38.81,0c1.5,21.63,2.9,43.27,4.38,64.9.15,2.48.46,5-.23,7.44l-.06.08a12.39,12.39,0,0,0-1.45,2.43,13.81,13.81,0,0,1-11.61,6.58q-77.42,0-154.82,0a18.23,18.23,0,0,1-4.84-.34,14,14,0,0,1-8.6-6.57,12.19,12.19,0,0,0-1.23-2.09L22,199.6c-.86-3.25-.16-6.6-.06-9.89,1.42-20.81,2.78-41.62,4.21-62.43q25.8-.06,51.6,0c0,1,0,2,0,3,5.45.1,11.16-.55,16.32,1.61a12.57,12.57,0,0,1,7.45,7.87,19.68,19.68,0,0,1-.35,12.3A12.58,12.58,0,0,1,93,159.61,20.77,20.77,0,0,1,79.07,159a12.7,12.7,0,0,1-7.2-7.93,17,17,0,0,1-.72-4.85c-3.3,0-6.59,0-9.89,0a20.86,20.86,0,0,0,13.95,20.16A32.87,32.87,0,0,0,92.11,168a24.6,24.6,0,0,0,14.62-7.54,22.42,22.42,0,0,0,5.43-14,20,20,0,0,0-3.87-13.78,22,22,0,0,0-6.54-5.37,26.42,26.42,0,0,1,3.56-.11h36.56C143.4,127.22,144.93,127.35,146.45,127.17Z"/></g><g id="_Group_4" data-name="&lt;Group&gt;"><path id="_Path_8" data-name="&lt;Path&gt;" class="cls-5" d="M20.2,50.56a13.94,13.94,0,0,1,10.94-4.93q82.38,0,164.76,0a14.1,14.1,0,0,1,7.54,2.2,14.56,14.56,0,0,1,6.15,8.63,11.45,11.45,0,0,1,0,3.74c-3,22.35-6.07,44.68-9,67-12.41,0-24.82,0-37.24,0-2.07,0-4.14.07-6.2,0H157c0-13.77,0-27.55,0-41.32a5.17,5.17,0,0,0-2.44.24c-9.53,3.37-19.09,6.69-28.62,10.08,0,3.11,0,6.22,0,9.33,6.89-2.28,13.76-4.61,20.65-6.89q0,14.28,0,28.56l-.2,0c-14.42.1-28.85,0-43.28,0a5.31,5.31,0,0,1-2.14-.09,16.27,16.27,0,0,0-2.53-1c6.1-2.7,11.31-8.15,12.35-14.91a25.74,25.74,0,0,0-1.62-12.52A19.29,19.29,0,0,0,101,89.22c-4.68-2.71-10.22-3.58-15.57-3.39A26.58,26.58,0,0,0,70.34,91a21,21,0,0,0-7.76,11.61,23.68,23.68,0,0,0-.68,5.43c3.33,0,6.66.06,10,0a13.6,13.6,0,0,1,5.44-11.37C81,94,85.78,93.57,90.15,94.18a12.29,12.29,0,0,1,8.39,4.75c2.42,3.47,2.84,7.95,2.36,12a12.63,12.63,0,0,1-7.52,9.8c-4.85,2.27-10.32,1.64-15.5,1.76h-.13c0,1.56,0,3.13,0,4.69q-25.8,0-51.62,0-4.41-32.85-8.87-65.69a15.43,15.43,0,0,1,.06-6.24A22.85,22.85,0,0,1,20.2,50.56Z"/><path id="_Path_9" data-name="&lt;Path&gt;" class="cls-5" d="M22.1,199.68a12.19,12.19,0,0,1,1.23,2.09,14,14,0,0,0,8.6,6.57,18.23,18.23,0,0,0,4.84.34q77.41,0,154.82,0a13.81,13.81,0,0,0,11.61-6.58,12.39,12.39,0,0,1,1.45-2.43,13.67,13.67,0,0,1-9,9.43c-2.42.84-5,.63-7.53.66H37.32a18.86,18.86,0,0,1-6-.6A13.7,13.7,0,0,1,22.1,199.68Z"/></g></g></g></g></g></svg>