<svg xmlns="http://www.w3.org/2000/svg" viewBox="0 0 226.77 226.77"><defs><style>.cls-1,.cls-7{fill:none;}.cls-2{fill:#448aff;}.cls-3{fill:#1565c0;}.cls-4{fill:#e0e0e0;}.cls-5{fill:#9e9e9e;}.cls-6{fill:#fff;}.cls-7{stroke:#9e9e9e;stroke-miterlimit:10;}</style></defs><title>sites</title><g id="Layer_2" data-name="Layer 2"><g id="Ikonky"><g id="sites"><rect id="border" class="cls-1" width="226.77" height="226.77"/><g id="logo"><rect class="cls-2" y="39.69" width="226.77" height="90.71"/><path class="cls-3" d="M215.43,209.76h-102V130.39H226.77v68A11.33,11.33,0,0,1,215.43,209.76Z"/><path class="cls-4" d="M113.39,209.76h-102A11.33,11.33,0,0,1,0,198.43v-68H113.39Z"/><path class="cls-5" d="M226.77,39.69H0V28.35A11.33,11.33,0,0,1,11.34,17H215.43a11.33,11.33,0,0,1,11.34,11.34Z"/><circle class="cls-6" cx="17.01" cy="28.35" r="5.67"/><circle class="cls-6" cx="34.02" cy="28.35" r="5.67"/><line class="cls-7" x1="17.01" y1="144.57" x2="96.38" y2="144.57"/><line class="cls-7" x1="17.01" y1="161.57" x2="96.38" y2="161.57"/><line class="cls-7" x1="17.01" y1="178.58" x2="96.38" y2="178.58"/><line class="cls-7" x1="17.01" y1="195.59" x2="68.03" y2="195.59"/></g></g></g></g></svg>