<?xml version="1.0" standalone="no"?>
<!DOCTYPE svg PUBLIC "-//W3C//DTD SVG 20010904//EN"
 "http://www.w3.org/TR/2001/REC-SVG-20010904/DTD/svg10.dtd">
<svg version="1.0" xmlns="http://www.w3.org/2000/svg"
 width="1024.000000pt" height="1024.000000pt" viewBox="0 0 1024.000000 1024.000000"
 preserveAspectRatio="xMidYMid meet">
<metadata>
Created by potrace 1.11, written by Peter Selinger 2001-2013
</metadata>
<g transform="translate(0.000000,1024.000000) scale(0.100000,-0.100000)"
fill="#000000" stroke="none">
<path d="M5003 8600 c-17 -10 -36 -27 -42 -38 -17 -32 -83 -76 -151 -100 -48
-17 -56 -22 -29 -18 21 2 42 -1 49 -7 10 -9 12 -8 7 5 -4 11 3 20 25 29 17 7
60 40 95 73 87 81 106 80 182 -2 31 -35 73 -69 94 -77 35 -14 37 -18 39 -63
l1 -47 4 43 c4 41 5 42 41 43 l37 1 -45 9 c-70 14 -132 51 -163 97 -27 40 -71
72 -99 72 -7 0 -27 -9 -45 -20z"/>
<path d="M5030 8454 c-63 -22 -90 -57 -90 -120 0 -52 53 -104 107 -104 87 0
145 81 110 155 -24 50 -85 83 -127 69z m90 -49 c57 -57 15 -155 -66 -155 -47
0 -94 45 -94 90 0 89 96 128 160 65z"/>
<path d="M4822 8363 l-2 -33 -201 0 -201 0 -85 -80 c-68 -65 -105 -90 -186
-130 -57 -28 -143 -60 -195 -72 -74 -18 -91 -26 -85 -38 4 -8 9 -39 11 -68 5
-63 -22 -125 -93 -214 -85 -106 -286 -248 -352 -248 l-23 0 0 -170 0 -171
-855 3 c-753 3 -856 1 -860 -12 -8 -26 -44 -261 -56 -370 -18 -156 -15 -556 5
-725 45 -379 146 -740 303 -1080 35 -77 67 -145 69 -151 3 -8 -26 -22 -78 -39
-435 -143 -764 -526 -843 -981 -19 -112 -19 -327 0 -440 45 -253 169 -490 356
-675 180 -179 403 -296 657 -346 117 -22 357 -22 467 1 157 33 316 97 450 179
l39 25 82 -87 c182 -193 413 -304 661 -318 l101 -6 43 -86 c34 -70 59 -103
133 -177 74 -74 107 -99 176 -132 117 -58 193 -75 320 -75 202 -1 349 61 495
208 75 74 99 106 134 178 l44 88 35 -53 c83 -124 233 -230 373 -263 94 -22
238 -19 329 6 200 55 375 223 435 419 l17 55 142 1 c117 1 157 6 238 27 120
32 240 90 336 162 l74 55 26 -19 c90 -63 294 -144 437 -172 105 -21 368 -18
475 5 363 78 685 326 849 654 84 167 124 344 124 547 0 164 -14 247 -63 397
-57 172 -141 307 -273 444 -186 194 -322 273 -614 359 -8 3 16 63 66 167 164
339 263 670 318 1058 14 100 18 192 18 460 -1 298 -3 351 -23 479 -38 241 -37
238 -80 245 -20 3 -430 6 -909 6 l-873 0 0 175 0 175 -27 5 c-54 12 -162 56
-206 86 -82 54 -131 143 -142 256 -4 32 -8 73 -11 91 l-5 32 -429 0 c-366 0
-430 2 -430 14 0 23 78 27 483 24 354 -3 377 -2 377 15 0 12 -8 17 -27 17 -86
1 -263 99 -395 219 l-66 61 -271 0 c-200 0 -271 3 -271 12 0 6 -3 9 -6 5 -14
-14 40 -123 85 -172 26 -29 57 -76 69 -105 l22 -52 -37 7 c-56 10 -158 54
-203 86 -39 28 -43 29 -164 29 l-125 0 -58 -40 c-54 -38 -187 -89 -200 -77
-13 13 10 56 67 127 64 80 95 153 87 212 l-4 33 -1 -32z m400 -266 c63 -40
139 -73 190 -82 l36 -7 7 -94 c4 -52 5 -103 2 -113 -8 -33 27 -76 81 -99 28
-12 99 -30 157 -39 l105 -16 0 -42 0 -42 89 -7 c62 -5 91 -12 95 -21 18 -48
141 -65 460 -65 l256 0 0 -137 c0 -76 -3 -162 -6 -190 l-7 -53 -350 0 -350 0
-475 226 -474 226 -487 -229 -486 -228 -322 -3 -323 -3 0 181 0 180 297 0
c282 0 299 1 340 21 24 12 54 34 65 50 21 28 24 29 110 29 l88 0 0 55 c0 30 3
55 8 55 4 0 49 5 101 10 101 11 170 36 214 77 27 26 27 29 27 149 l0 122 39 7
c45 7 163 63 201 94 22 18 39 21 142 21 116 0 118 0 170 -33z m-562 -102 c0
-13 -49 -15 -379 -15 -324 0 -380 2 -391 15 -11 13 32 15 379 15 341 0 391 -2
391 -15z m858 -694 l463 -221 355 0 354 0 0 -40 0 -40 -345 0 -345 0 -476 227
c-263 124 -482 226 -488 226 -6 0 -230 -102 -497 -227 l-486 -226 -316 0 -317
0 0 35 0 35 318 0 317 1 490 229 c270 126 495 227 500 225 6 -2 218 -103 473
-224z m1165 182 c-13 -2 -33 -2 -45 0 -13 2 -3 4 22 4 25 0 35 -2 23 -4z
m-1163 -268 l473 -225 348 0 349 0 0 -493 c0 -272 3 -925 6 -1453 l7 -959 -64
-28 c-35 -15 -67 -27 -70 -27 -4 0 -26 30 -50 68 -62 95 -198 229 -303 297
-97 63 -216 116 -327 144 -65 16 -75 22 -104 63 -18 25 -48 51 -66 59 -75 31
-162 6 -206 -61 l-23 -33 0 292 0 291 -425 0 -425 0 0 -291 0 -292 -23 34
c-53 79 -156 105 -228 56 -58 -38 -79 -95 -79 -210 0 -84 -2 -98 -15 -93 -8 3
-54 10 -101 16 -149 19 -349 -17 -487 -87 -27 -13 -50 -23 -52 -21 -1 2 -10
41 -19 88 -24 117 -74 216 -152 297 l-64 66 0 1138 0 1139 320 0 320 0 483
225 c265 123 487 224 493 225 7 0 225 -101 484 -225z m2995 -582 c11 -115 -1
-501 -20 -638 -51 -373 -154 -718 -311 -1043 -122 -254 -239 -440 -414 -661
-93 -117 -95 -119 -150 -131 -129 -29 -301 -100 -402 -167 l-39 -26 -42 30
c-118 85 -270 122 -388 94 l-36 -8 -6 960 c-4 528 -7 1119 -7 1314 l0 353 904
0 904 0 7 -77z m-5105 -929 c0 -542 -3 -984 -7 -982 -5 2 -41 20 -82 40 -97
49 -163 62 -286 56 -271 -14 -479 -198 -533 -471 l-17 -88 -21 23 c-42 46
-171 226 -236 329 -253 403 -414 849 -489 1349 -22 141 -38 621 -25 694 l7 36
844 0 845 0 0 -986z m2070 -629 l0 -65 -415 0 -415 0 0 65 0 65 415 0 415 0 0
-65z m0 -293 l0 -219 -82 -19 c-46 -10 -90 -20 -99 -22 -12 -2 -20 9 -28 44
-44 174 -307 206 -402 50 -17 -27 -19 -51 -19 -205 l0 -174 -33 -36 c-17 -20
-42 -49 -54 -66 l-21 -29 -45 39 -45 40 -1 408 -1 407 415 0 415 0 0 -218z
m-352 -87 c68 -20 115 -68 131 -130 7 -26 10 -50 7 -53 -3 -3 -31 -15 -62 -28
-87 -35 -209 -113 -280 -177 l-64 -59 0 162 c0 148 2 166 22 201 25 44 55 67
113 85 54 17 72 17 133 -1z"/>
<path d="M5014 7976 l-34 -34 0 -134 0 -134 -37 -22 -38 -22 155 1 c85 0 148
3 140 6 -62 20 -60 15 -60 165 0 144 -10 188 -45 202 -31 11 -47 6 -81 -28z"/>
<path d="M3825 7375 c-32 -31 -34 -86 -5 -115 31 -31 93 -27 119 6 43 55 8
134 -59 134 -19 0 -40 -9 -55 -25z"/>
<path d="M6205 7375 c-52 -51 -17 -135 56 -135 26 0 46 7 59 20 13 13 20 33
20 59 0 73 -84 108 -135 56z"/>
<path d="M4435 6721 c-47 -12 -72 -28 -102 -68 l-28 -36 -3 -349 -3 -348 178
2 178 3 0 335 c0 298 -2 339 -17 366 -23 43 -71 81 -116 94 -41 11 -44 11 -87
1z"/>
<path d="M5014 6720 c-47 -11 -92 -47 -114 -90 -19 -37 -20 -60 -20 -375 l0
-335 181 0 180 0 -3 338 c-3 296 -5 341 -20 368 -23 43 -71 81 -116 94 -41 11
-44 11 -88 0z"/>
<path d="M5577 6716 c-22 -8 -50 -25 -64 -38 -51 -46 -53 -62 -53 -423 l0
-335 178 2 177 3 3 300 c3 323 -3 378 -44 432 -45 59 -128 84 -197 59z"/>
<path d="M3680 6275 l0 -345 175 0 175 0 0 345 0 345 -175 0 -175 0 0 -345z"/>
<path d="M6090 6275 l0 -345 180 0 180 0 0 345 0 345 -180 0 -180 0 0 -345z"/>
<path d="M3740 5410 l0 -210 110 0 110 0 0 210 0 210 -110 0 -110 0 0 -210z"/>
<path d="M4350 5410 l0 -210 110 0 110 0 0 210 0 210 -110 0 -110 0 0 -210z"/>
<path d="M4930 5410 l0 -210 110 0 110 0 0 210 0 210 -110 0 -110 0 0 -210z"/>
<path d="M5520 5410 l0 -210 110 0 110 0 0 210 0 210 -110 0 -110 0 0 -210z"/>
<path d="M6170 5410 l0 -210 110 0 110 0 0 210 0 210 -110 0 -110 0 0 -210z"/>
</g>
</svg>
