<svg xmlns="http://www.w3.org/2000/svg" viewBox="0 0 226.77 226.77"><defs><style>.cls-1{fill:none;}.cls-2{fill:#fff;}.cls-3{fill:#e6e7e8;}.cls-4{fill:#ffc107;}.cls-5{fill:#c2c2c2;}.cls-6{fill:#303f9f;}</style></defs><title>bakery</title><g id="Layer_2" data-name="Layer 2"><g id="Ikonky"><g id="bakery"><rect id="border" class="cls-1" width="226.77" height="226.77"/><g id="logo"><rect class="cls-2" x="26.91" y="65.79" width="173.35" height="130.88"/><path class="cls-3" d="M199.06,102.68H27.72V70.55H199.06m0,53.54h-75v-10.7h75m0,32.12h-75V134.8h75m0,32.13h-75V156.22h75m0,32.13h-75V177.64h75m-85.67,10.71H27.72v-75h85.67m89.2-78.5L184.81,17,166.93,34.89,149.05,17,131.27,34.89,113.39,17,95.5,34.89,77.73,17,59.84,34.89,42,17,24.18,34.89,6.3,17V188.35a21.42,21.42,0,0,0,21.42,21.41H199.06a21.42,21.42,0,0,0,21.41-21.41V17Z"/><path class="cls-4" d="M96.79,138l-.06,0a1.5,1.5,0,0,0-2.32,1.36A57.36,57.36,0,0,1,94,150.93a.51.51,0,0,1-1,0A66.73,66.73,0,0,0,87,134a1.52,1.52,0,0,0-.92-.76,55.16,55.16,0,0,0-11.64-1.9,1.48,1.48,0,0,0-1.23.54,1.51,1.51,0,0,0-.3,1.31c1.63,6.8,1.19,14.32.8,18.14a.51.51,0,0,1-.46.45.5.5,0,0,1-.54-.36c-1.29-4.47-4.21-14-7.1-18.89a1.49,1.49,0,0,0-1.43-.74,34.67,34.67,0,0,0-11.06,2.45h0a1.14,1.14,0,0,0-1,1.42A54.22,54.22,0,0,1,52.26,151a.46.46,0,0,1-.49.39.53.53,0,0,1-.52-.44,64,64,0,0,0-3.85-12.33,1.86,1.86,0,0,0-2.64-.89c-9,5.26-13.09,11.4-13.09,17.68,0,13.34,17.41,14.92,38.88,14.92s38.88-1.58,38.88-14.92C109.44,149.69,105.85,144,96.79,138Z"/><rect class="cls-5" x="124.03" y="113.39" width="75.02" height="10.71"/><rect class="cls-6" x="27.72" y="70.55" width="171.34" height="32.13"/><rect class="cls-5" x="124.06" y="134.8" width="75.02" height="10.71"/><rect class="cls-5" x="124.09" y="156.22" width="75.02" height="10.71"/><rect class="cls-5" x="124.09" y="177.64" width="75.02" height="10.71"/></g></g></g></g></svg>