<svg xmlns="http://www.w3.org/2000/svg" viewBox="0 0 226.77 226.77"><defs><style>.cls-1{fill:none;}.cls-2{fill:#37474f;}.cls-3,.cls-4{fill:#fff;isolation:isolate;}.cls-3{opacity:0.9;}.cls-4{opacity:0.1;}.cls-5{fill:#303f9f;}.cls-6{fill:#f44336;}</style></defs><title>cestina</title><g id="Layer_2" data-name="Layer 2"><g id="Ikonky"><g id="cestina"><rect id="border" class="cls-1" width="226.77" height="226.77"/><rect id="_581045136_shock_x5F_color" data-name="581045136_shock_x5F_color" class="cls-2" y="34.02" width="226.77" height="158.74"/><rect class="cls-3" x="22.68" y="56.69" width="181.42" height="113.39"/><path class="cls-4" d="M0,34,22.68,56.69V170.08L0,192.76Zm226.77,0L204.09,56.69V170.08l22.68,22.68Z"/><g id="logo"><path class="cls-5" d="M51.52,137.52,59.7,91H72.15L64,137.52ZM68.44,84.69a8,8,0,1,1,5.65-2.33A7.69,7.69,0,0,1,68.44,84.69Z"/><path class="cls-6" d="M72.52,137.52l40.2-68h12.54L85,137.52Z"/><path class="cls-5" d="M120.61,158.05,135,134.77,123.36,91h13.88L144,119.28h.76L161.18,91h14.07L134.2,158.05Z"/></g></g></g></g></svg>