<svg xmlns="http://www.w3.org/2000/svg" viewBox="0 0 226.77 226.77"><defs><style>.cls-1{fill:none;}.cls-2{fill:#9c27b0;}.cls-3{fill:#fff;opacity:0.4;isolation:isolate;}</style></defs><title>chemie</title><g id="Layer_2" data-name="Layer 2"><g id="Ikonky"><g id="chemie"><rect id="border" class="cls-1" width="226.77" height="226.77"/><g id="logo"><path id="_581045050_shock_x5F_color" data-name="581045050_shock_x5F_color" class="cls-2" d="M209.76,190.49c0,19.27-19.27,19.27-19.27,19.27H36.28S17,209.76,17,190.49c0-12,26-50,45.78-77.1,12-16.48,21.68-28.92,21.68-28.92V36.28H74.83V17h77.11V36.28H142.3V84.47s9.64,12.44,21.68,28.92C183.74,140.48,209.76,178.54,209.76,190.49Z"/><path class="cls-3" d="M84.47,84.47V36.28H74.83V17h77.11V36.28H142.3V84.47s9.64,12.44,21.68,28.92H62.79C74.83,96.91,84.47,84.47,84.47,84.47Zm67.47,96.38A28.88,28.88,0,0,0,123,209.76h57.83A28.87,28.87,0,0,0,151.94,180.85Zm-67.47-9.64A19.28,19.28,0,1,0,65.2,190.49,19.27,19.27,0,0,0,84.47,171.21ZM123,147.12a14.46,14.46,0,1,0,14.46-14.46A14.46,14.46,0,0,0,123,147.12Z"/></g></g></g></g></svg>