<svg xmlns="http://www.w3.org/2000/svg" viewBox="0 0 226.77 226.77"><defs><style>.cls-1,.cls-6,.cls-9{fill:none;}.cls-2{fill:#f57d00;}.cls-3{fill:#2194f1;}.cls-4{fill:#fdbf07;}.cls-5{fill:#311b90;}.cls-5,.cls-6,.cls-7,.cls-8,.cls-9{stroke:#311b90;stroke-miterlimit:22.93;}.cls-5,.cls-6,.cls-8{stroke-width:0.22px;}.cls-7,.cls-8{fill:#fff;}.cls-7{stroke-width:0.5px;}.cls-9{stroke-width:2.27px;}</style></defs><title>experti</title><g id="Layer_2" data-name="Layer 2"><g id="Ikonky"><g id="experti"><rect id="border" class="cls-1" width="226.77" height="226.77"/><g id="logo"><path class="cls-2" d="M102,186.23a8.2,8.2,0,1,1-8.19-7.91A8.06,8.06,0,0,1,102,186.23ZM62.74,63.57a8.21,8.21,0,1,1-8.2-7.91A8.06,8.06,0,0,1,62.74,63.57ZM202.92,90.42a8.2,8.2,0,1,1-8.19-7.91A8.05,8.05,0,0,1,202.92,90.42Zm-92.35,119c-5.52-1.61-10.78-6.92-15-15.14-1.61-3.15-1.92-3.55-2.75-3.55a7.72,7.72,0,0,1-4.71-2.19c-1.91-2.41-1.4-5.38.69-7.51a2.45,2.45,0,0,0,.69-1.67,31.85,31.85,0,0,0-.89-3.75c-1.07-3.82-3-12.74-3.37-15.32a9,9,0,0,0-.49-2.2c-.16-.23-2.06.26-5.56,1.46a191.38,191.38,0,0,1-30.14,7.63c-4.52.75-16.13.83-19.11.15-6.84-1.58-10.55-5-11-10.21-.23-2.86.53-5.57,2.7-9.63,2.86-5.37,6.22-9.63,12.51-15.89a192.23,192.23,0,0,1,21.07-17.47l1.23-.83L54.7,112C31.38,95.12,18.27,79.61,19,69.76c.59-8.28,10-12,26.38-10.36,3.67.36,3.7.36,4.79-.47A7.21,7.21,0,0,1,60.5,60.74a3.32,3.32,0,0,0,2.71,1.86c3,.73,11.83,3.35,16.64,4.95a27.87,27.87,0,0,0,4.7,1.32,30.38,30.38,0,0,0,.93-4.09c4.08-21.84,10.86-37.66,19-44.37,4.17-3.44,9-4.31,13.29-2.43,4,1.75,8.78,6.89,12.45,13.49,2.6,4.68,6.12,14.34,8.31,22.78,1.13,4.36,2.81,12.45,2.81,13.54a1.27,1.27,0,0,0,.36,1,32,32,0,0,0,5.79-1.61c26.62-8.84,48.19-10.5,56.55-4.35C209.56,66.87,209,75,202.62,84c-1.1,1.53-1.32,2.11-1.11,2.79a15.23,15.23,0,0,1,.31,3.19c0,2.1-.08,2.47-1,3.59a7.19,7.19,0,0,1-6.38,2.36c-1.9-.2-2-.16-3,.82-1.76,1.84-11.51,9.91-16.05,13.28a36.81,36.81,0,0,0-4.43,3.58,15.32,15.32,0,0,0,2.76,2.3c4.41,3.23,11.8,9.3,15.14,12.45,15.36,14.49,21.38,26,17.41,33.26-3.87,7.11-17.33,8.35-38.62,3.57-5.43-1.22-18.34-5-23-6.71a8.23,8.23,0,0,0-3-.77,30.32,30.32,0,0,0-1.08,4.71c-3.86,21.34-10.38,36.89-18.27,43.62a21.54,21.54,0,0,1-4,2.71A12.59,12.59,0,0,1,110.57,209.45Zm5-4.33c8.87-2.37,16.47-18.22,20.87-43.56a26.94,26.94,0,0,0,.64-5.51c-.15-.13-2.67-1.14-5.6-2.25s-8.18-3.34-11.66-5l-6.33-2.94-6,2.75c-5.09,2.33-10.75,4.65-16.94,6.91-1.2.44-1.38.65-1.38,1.6,0,1.5.9,6.33,2.4,13,1.9,8.39,1.94,8.48,3.76,9.08a5.93,5.93,0,0,1,4,3.19,5.65,5.65,0,0,1-.6,6c-1.21,1.64-1.25,1.49,1.54,6.47,3.35,6,6.81,9.29,10.94,10.42a7,7,0,0,0,4.32-.19ZM194.8,164c2.76-.48,5.76-1.95,6.91-3.39a7.27,7.27,0,0,0,1.72-6c-.41-5.52-5.53-12.86-15.46-22.19-5.82-5.46-20.18-16.42-21.24-16.2a63.8,63.8,0,0,0-5.7,3.59c-2.83,1.91-7.64,5-10.68,6.79L144.81,130l-.44,6.3c-.25,3.47-.79,8.7-1.2,11.62a42,42,0,0,0-.59,5.46c.43.38,9.9,3.63,15.69,5.39,16,4.85,28.61,6.66,36.53,5.26ZM46,163.68c9.31-1.1,21.6-4.19,34.15-8.59,2.76-1,3.84-1.51,3.84-1.9s-.33-2.88-.72-5.72-.92-8.13-1.16-11.76l-.45-6.59L79.6,128c-3.58-1.9-11.85-6.94-15.5-9.45a33.48,33.48,0,0,0-3.8-2.43c-.4,0-2.46,1.46-7.94,5.6a189.28,189.28,0,0,0-18,15.7c-13.15,13.75-14.19,23.56-2.76,26,2.61.57,10.32.67,14.39.19ZM95.3,149.46c2.78-1.1,6.83-2.84,9-3.85l4-1.85-3.6-1.68c-4.45-2.08-10.87-5.4-14.18-7.33-3.83-2.24-3.57-2.36-3.57,1.75a84.47,84.47,0,0,0,1.13,12.61c.5,3.29-.09,3.26,7.24.35Zm42.91.62c1.33-9,2-17.09,1.38-17.09a.83.83,0,0,0-.61.31c-.35.5-11.43,6.32-16.1,8.45a35.76,35.76,0,0,0-4.32,2.16c0,.5,17.57,7.88,18.8,7.89C137.8,151.81,138,151.36,138.21,150.08Zm-18.38-11.86c6-2.9,14.25-7.25,18.36-9.71l1.95-1.16.24-4c.3-4.94.24-21.87-.08-23.15-.19-.79-1.24-1.5-6.44-4.38-3.41-1.89-6.25-3.44-6.3-3.44s-2-.94-4.27-2.09c-7.71-3.85-9.12-4.51-9.71-4.51-1.38,0-19.2,8.93-25.62,12.84-1.59,1-1.74,1.17-2,2.78-.44,3.17,0,25.07.47,25.88.41.64,7,4.53,11.77,6.94,6.7,3.38,14.33,7,14.78,7a67.14,67.14,0,0,0,6.81-3Zm-10-15.39c-6.5-2.08-9.54-8.78-6.45-14.18a10.22,10.22,0,0,1,7-4.89c2.82-.65,4.59-.45,7.65.87,6.48,2.79,8.23,10.69,3.45,15.57C118.92,122.86,113.66,124.05,109.88,122.83ZM81,113.33c0-8.77-.09-11-.46-10.84-2.88,1.48-16.64,10.59-16.64,11a11.18,11.18,0,0,0,2.36,1.87c3.12,2.12,14.11,9,14.47,9,.15,0,.27-5,.27-11ZM153,119.87c4-2.5,7.82-5,8.55-5.61,1.31-1.05,1.33-1.08.6-1.58-6.23-4.35-15.77-10.39-16.39-10.39-.18,0-.36,5-.42,11.06s0,11.06.17,11.06S149,122.36,153,119.87Zm-83.77-15c4.43-2.85,9.05-5.74,10.28-6.43l2.22-1.24.23-3.64c.35-5.36.9-10.72,1.56-15.2.89-5.94,1.09-5.34-2.09-6.46-3.58-1.27-14.93-4.67-18.08-5.42l-2.46-.58-1.13,1.16A7,7,0,0,1,47.8,64.27c-.21-.83-.38-.89-3-1.11-4.76-.4-11.84,0-14.31.79-11.78,3.82-8.24,15.3,9.69,31.43,3.35,3,8.57,7.33,11.6,9.59,8.1,6,8,6,8.73,5.48l8.68-5.59Zm101.73,2.85A161.49,161.49,0,0,0,185,96.54l4.14-3.63-.23-1.56a6.23,6.23,0,0,1,1.4-5.49,6,6,0,0,1,5.2-2l1.9.13,1.74-2.3c3.88-5.14,5.3-10.53,3.62-13.74-1-1.86-1.87-2.63-4.26-3.69-5.92-2.64-17.94-2-32.73,1.62-6.41,1.59-22.58,6.6-23.26,7.21a43.9,43.9,0,0,0,.6,6c.74,5.43,1.5,13.78,1.51,16.67,0,1.17.14,1.3,3.22,3.11,5.36,3.15,12.24,7.55,15.36,9.82,1.62,1.17,3,2.15,3.12,2.16s2.17-1.4,4.58-3.14ZM139.89,92.27c0-4.1-1.58-17.38-2.06-17.38s-18.91,8-18.91,8.24a7.63,7.63,0,0,0,1.91,1c2.88,1.18,13.79,6.85,16.3,8.46A20.14,20.14,0,0,0,139.61,94c.15,0,.28-.77.28-1.74Zm-51.55.83c2.42-1.51,12.73-6.95,16.14-8.51l3.76-1.73L106,81.73c-4.81-2.37-16.37-6.94-17-6.72s-.7,1.17-1.43,7.8c-1.26,11.45-1.25,11.59.83,10.29ZM117,78.89c3.4-1.52,13.54-5.64,18.29-7.42,2.62-1,2.55-.25.88-9.13-3.35-17.8-8.65-31.24-14.58-37-3-2.87-5.19-3.94-8.18-3.93a9.72,9.72,0,0,0-6.92,2.86c-6.91,6.21-12.62,20.25-16.2,39.88-1,5.64-1.08,6.08-.63,6.4.21.16,3,1.33,6.28,2.61s8.45,3.43,11.58,4.8,5.75,2.49,5.8,2.5,1.71-.69,3.68-1.58Z"/><path class="cls-3" d="M162.2,132.51a14.52,14.52,0,0,0-.29-3h0a14.87,14.87,0,0,0-6-9.16l-.05-.08a14.87,14.87,0,0,0-17,.06,6.07,6.07,0,0,0-7.37-.7,13,13,0,0,0-22.06-1,10.81,10.81,0,0,0-13.23-1.76,7,7,0,0,0-14,.07v.19a15.48,15.48,0,0,0-2.28-.17,15.31,15.31,0,1,0,8.8,27.83,12.27,12.27,0,0,0,9.91,5l.3,0a8.56,8.56,0,0,0,16.2-.13,7.73,7.73,0,0,0,14.4-2,12.79,12.79,0,0,0,1.64.12,11.76,11.76,0,0,0,7.87-3,15.08,15.08,0,0,0,3.25,1.66h0a13.15,13.15,0,0,0,1.26.39l.13,0,.61.14.31.06.89.14.47.05.48,0,.63,0h.27a14.1,14.1,0,0,0,2.27-.17,14.84,14.84,0,0,0,12.6-14.68h0Z"/><path class="cls-4" d="M92.8,94.42h-21c-1.06,14.1,4.4,24.42,12.35,33.11H92.8V94.42Z"/><path class="cls-4" d="M132.62,94.05H155c1.11,14.1-3.93,24.74-12.35,33.48h-9.94V94.05Z"/><path class="cls-5" d="M92.9,85.36h39.72v-.74c-4.35-.79-4.77-3.52-4.63-6.52-1.71,0-3.74-1.25-6-3.42H105a10.41,10.41,0,0,1-6.61,3.7c1.39,2.63-4,6.75-5.5,6.65v.33Z"/><path class="cls-4" d="M92.85,127.67h39.72l.09-42.77-5.92,0c-1.8-.09-3-.32-2.82-1H121.7l0-1.15c-2.4-.14-4-.6-4.21-1.53,0-.92,0-1.85,0-2.77a4.89,4.89,0,0,0-1.48-2.31,4.93,4.93,0,0,1-.69-2.82l.83,0c-1.25-.14-2.22-.51-2.55-1.48a1.12,1.12,0,0,0-2,0,3.71,3.71,0,0,1-2.5,1.48h.83a6.47,6.47,0,0,1-.41,2.64c-.93,1.24-1.67,1.84-1.62,2.54v3c-.65,1.11-2.18,1.43-4.26,1.43v1.2h-2.12a2.75,2.75,0,0,1-2.83,1.3l-5.91,0-.05,42.27Z"/><path class="cls-6" d="M154.07,88.92l-21.41,0c.05-1.2,0-3,0-4.3-4.76-1.11-4.58-3.56-4.67-6.56-2.54,0-4.3-2-6-3.38-2.18,0-4.4,0-6.57,0,0-.41,0-1-.09-1.38h.83c-1.39-.19-2.22-.7-2.54-1.44-.7-.83-1.34-.83-2,0a3.76,3.76,0,0,1-2.49,1.39c.32,0,.55-.09.88-.05-.05.51-.05,1-.1,1.53H105a10.72,10.72,0,0,1-6.7,3.65c1.57,2.59-4,6.85-5.46,6.71,0,1.29.05,2.73,0,4H72.64"/><path class="cls-7" d="M112.69,73.29a1.25,1.25,0,1,1-1.25,1.25,1.24,1.24,0,0,1,1.25-1.25Z"/><polygon class="cls-8" points="107.97 78.47 98.31 78.47 98.72 78.98 107.97 78.98 107.97 78.47"/><polygon class="cls-8" points="127.99 78.42 117.59 78.47 117.59 78.98 127.99 78.98 127.99 78.42"/><path class="cls-5" d="M111.9,82.63v-3c.14-1.06,1.67-1.48,1.76,0v3.1a1.47,1.47,0,0,0,.83.42h-3.42c.28-.19.55-.32.83-.51Z"/><path class="cls-6" d="M92.9,85.4h5.59c1.39.14,2.54-.13,3.15-1.24h2.08V82.82c1.61-.1,3.33,0,4.25-1.35v-3A5.63,5.63,0,0,0,111.21,77h3a7.69,7.69,0,0,0,3.42,1.52l0,2.78c.28.55.37,1.11,4.12,1.52V84l2.17,0c-.14.92,3,1,3.1,1,3,0,2.68,0,5.64,0M92.94,89.84h7.63l11.93-5.55,11.56,5.51h8.51M92.94,90.86h7.63l11.93-5.55,11.56,5.5h8.51"/><path class="cls-5" d="M110.65,103.72h4.21v-7.5h0a2.08,2.08,0,0,0-4.16,0h0v7.5Z"/><path class="cls-5" d="M117.63,103.72h4.21v-7.5h0a2.09,2.09,0,0,0-4.17,0h0v7.5Z"/><path class="cls-5" d="M103.62,103.72h4.21v-7.5h0a2.09,2.09,0,0,0-4.17,0h0v7.5Z"/><polygon class="cls-5" points="125.31 95.44 129.47 95.44 129.47 103.62 125.31 103.62 125.31 95.44"/><polygon class="cls-5" points="96.13 95.44 100.3 95.44 100.3 103.62 96.13 103.62 96.13 95.44"/><path class="cls-6" d="M110.24,127.67h5.08v-7.26h0a2.57,2.57,0,0,0-5,0h0l0,7.26Zm-2.55-12.76h10.22v12.76H107.69V114.91Zm0,0H118v-1.72H107.69v1.72Z"/><polygon class="cls-5" points="111.25 107.46 113.75 107.46 113.75 112.45 111.25 112.45 111.25 107.46"/><polygon class="cls-5" points="126.23 107.46 128.78 107.46 128.78 112.45 126.23 112.45 126.23 107.46"/><polygon class="cls-5" points="118.42 107.46 120.96 107.46 120.96 112.45 118.42 112.45 118.42 107.46"/><polygon class="cls-5" points="104.22 107.46 106.77 107.46 106.77 112.45 104.22 112.45 104.22 107.46"/><polygon class="cls-5" points="96.92 107.46 99.46 107.46 99.46 112.45 96.92 112.45 96.92 107.46"/><path class="cls-5" d="M118,127.67h3.88v-6.94h0a1.9,1.9,0,0,0-3.8,0h0l0,6.94Z"/><path class="cls-5" d="M103.81,127.67h3.84v-6.94h-.05a1.9,1.9,0,0,0-3.79,0h0v6.94Z"/><path class="cls-6" d="M92.9,89.33v38.29m39.67-38.7.05,38.75"/><path class="cls-5" d="M127.21,86a.93.93,0,0,0-.84,1,1,1,0,0,0,1,.84,1,1,0,0,0,.83-.93.92.92,0,0,0-1-.92Z"/><path class="cls-5" d="M98.4,86a.92.92,0,0,0-.83,1,.94.94,0,0,0,1,.84,1,1,0,0,0,.84-.93.93.93,0,0,0-1-.92Z"/><path class="cls-9" d="M84.16,127.48A41.73,41.73,0,0,1,72.64,89"/><path class="cls-9" d="M154.21,89a41.73,41.73,0,0,1-11.59,38.54"/><line class="cls-6" x1="142.37" y1="127.62" x2="84.11" y2="127.62"/><path class="cls-5" d="M92.9,89.1H72.69a20.67,20.67,0,0,0-.83,5.37h21V89.1Z"/><path class="cls-5" d="M132.62,88.87H154a21.14,21.14,0,0,1,.87,5.37H132.57V88.87Z"/><path class="cls-3" d="M151.62,125.52a14.82,14.82,0,0,0-13.26,1.94,6.06,6.06,0,0,0-7.38-.69,13,13,0,0,0-22.06-1A10.81,10.81,0,0,0,95.69,124a7,7,0,0,0-14,.07l0,.27a15.86,15.86,0,0,0-2.3-.18,15.12,15.12,0,0,0-4.28.62v10.91h76.47Z"/></g></g></g></g></svg>