<svg xmlns="http://www.w3.org/2000/svg" viewBox="0 0 226.77 226.77"><defs><style>.cls-1{fill:none;}.cls-2{fill:#26c6da;}.cls-3{fill:#ec407a;}.cls-4{fill:#7e57c2;}</style></defs><title>fyzika</title><g id="Layer_2" data-name="Layer 2"><g id="Ikonky"><g id="fyzika"><rect id="border" class="cls-1" width="226.77" height="226.77"/><g id="logo"><path id="_581045110_shock_x5F_color" data-name="581045110_shock_x5F_color" class="cls-2" d="M183.18,113.39c23.69-15.49,20.23-36.82,13.68-48.19s-23.3-25-48.58-12.24C146.73,24.68,126.51,17,113.39,17S80.07,24.67,78.5,53c-25.26-12.77-42,.86-48.57,12.24s-10,32.7,13.67,48.2c-23.71,15.49-20.26,36.8-13.68,48.19s23.3,25,48.57,12.25c1.58,28.27,21.75,35.93,34.89,35.93s33.32-7.65,34.88-35.93c25.28,12.77,42-.91,48.59-12.25S206.89,128.88,183.18,113.39Zm6.07-43.81c.6,1.06,12.67,23-13.39,38.11l-1.13.64-26.3-15.18V62.81l1.13-.66C175.67,47.08,188.64,68.52,189.25,69.58Zm-75.86,74.17L87.1,128.56V98.22L113.39,83l26.28,15.17v30.36Zm26.28-5.06v20.23l-17.51-10.11Zm-35,10.11L87.1,158.92V138.68ZM78.34,123.51,60.82,113.4l17.52-10.12ZM87.1,88.1V67.87L104.62,78ZM122.16,78l17.51-10.12V88.1Zm26.27,25.28L166,113.4l-17.54,10.12ZM113.38,25.78c1.22,0,26.29.53,26.29,30.64v1.33L113.39,72.92,87.1,57.74v-1.3C87.1,26.29,112.15,25.78,113.38,25.78ZM37.51,69.58c.62-1.08,13.6-22.5,39.69-7.43l1.14.66V93.16L52.05,108.33l-1.12-.64C24.84,92.6,36.91,70.63,37.51,69.58Zm0,87.62c-.62-1.07-12.67-23,13.43-38.09l1.14-.66,26.27,15.18V164l-1.13.64C51.11,179.69,38.11,158.25,37.5,157.2ZM113.39,201c-1.24,0-26.29-.54-26.29-30.66V169l26.29-15.17L139.67,169v1.3C139.67,200.47,114.6,201,113.39,201Zm75.88-43.81c-.61,1-13.62,22.48-39.69,7.44l-1.15-.66V133.64l26.3-15.19,1.12.65C202,134.17,189.89,156.12,189.27,157.19Z"/><circle class="cls-3" cx="113.39" cy="113.4" r="17.52"/><path class="cls-4" d="M192.24,43.31a17.52,17.52,0,1,1-17.53,17.52A17.53,17.53,0,0,1,192.24,43.31ZM34.53,148.44A17.53,17.53,0,1,1,17,166,17.53,17.53,0,0,1,34.53,148.44Z"/></g></g></g></g></svg>