<svg xmlns="http://www.w3.org/2000/svg" viewBox="0 0 226.77 226.77"><defs><style>.cls-1{isolation:isolate;}.cls-2,.cls-3,.cls-6{fill:none;}.cls-3{stroke:#5b858e;stroke-miterlimit:10;stroke-width:19.86px;}.cls-4{fill:#7fa2ad;}.cls-5{opacity:0.4;}.cls-10,.cls-12,.cls-5{mix-blend-mode:multiply;}.cls-6{stroke:#7fa2ad;stroke-linecap:round;stroke-linejoin:round;stroke-width:12.96px;}.cls-10,.cls-12,.cls-7{fill:#29bfed;}.cls-8{fill:#8ad607;}.cls-9{fill:#acef29;}.cls-10{opacity:0.3;}.cls-11{fill:#5b858e;}.cls-12{opacity:0.2;}</style></defs><title>geografie</title><g class="cls-1"><g id="Layer_2" data-name="Layer 2"><g id="Ikonky"><g id="geografie"><rect id="border" class="cls-2" width="226.77" height="226.77"/><g id="logo"><line class="cls-3" x1="121.9" y1="184.7" x2="121.9" y2="200.09"/><path class="cls-4" d="M122.53,188.64A86.29,86.29,0,0,1,91.18,22l3.11,8a77.71,77.71,0,0,0,56.52,144.77l3.11,8A86.22,86.22,0,0,1,122.53,188.64Z"/><g class="cls-5"><path class="cls-4" d="M82,26.21l3.16,8A77.64,77.64,0,0,1,94.29,30l-3.11-8A86.56,86.56,0,0,0,82,26.21Z"/><path class="cls-4" d="M153.92,182.69l-3.11-8a80,80,0,0,1-9.25,3l3.15,8A86.12,86.12,0,0,0,153.92,182.69Z"/></g><line class="cls-6" x1="88.95" y1="17.01" x2="155.77" y2="188.18"/><circle class="cls-7" cx="122.61" cy="102.32" r="67.92" transform="translate(2.06 207.06) rotate(-80.83)"/><path class="cls-8" d="M107.4,51.5c4.79-5.75,18.46-2.2,25.49,6.6s7.92,23.3.44,25.93-13.19-7.91-18.9-12.31S100.8,59.41,107.4,51.5Z"/><path class="cls-8" d="M101.68,103.81c11-4.83,8.79-20.22-11.87-27.25C79,72.86,74.16,64.3,73,55.93A67.92,67.92,0,0,0,93.73,163.8c-.82-6.37,2.48-12.31,6.19-16,6.6-6.6,9.23-15.83-1.76-22.86S90.69,108.65,101.68,103.81Z"/><path class="cls-9" d="M85.57,159.25c2.77-7.4-1.06-16.38-4.89-20.46-5.58-6-9.3-24.94-3.72-33.51s3.72-19.35-5.21-24.56c-5.68-3.31-6.84-9.78-6.94-14a67.92,67.92,0,0,0,20.76,92.58Z"/><path class="cls-8" d="M140.19,36.71c-1.25,6.1,1,14.78,7.65,21.39,10.55,10.55,26.38,34.28,9.23,48.79s-28.13,31.65-11,42.2A53,53,0,0,0,164.2,156a67.93,67.93,0,0,0-24-119.31Z"/><path class="cls-9" d="M116.79,56.89C113.38,59.57,122,77,128,75.13S122,52.8,116.79,56.89Z"/><path class="cls-4" d="M153.11,204.27a5.49,5.49,0,0,1-5.49,5.49h-51a5.49,5.49,0,0,1-5.5-5.49h0a5.5,5.5,0,0,1,5.5-5.5h51a5.49,5.49,0,0,1,5.49,5.5Z"/><path class="cls-10" d="M136,152.93A67.94,67.94,0,0,1,76.28,52.67a67.92,67.92,0,1,0,106.07,82A67.66,67.66,0,0,1,136,152.93Z"/><path class="cls-11" d="M147.62,203.62h-51a5.48,5.48,0,0,1-4.56-2.42,5.49,5.49,0,0,0,4.56,8.56h51a5.5,5.5,0,0,0,4.56-8.56A5.5,5.5,0,0,1,147.62,203.62Z"/><path class="cls-9" d="M155.77,43c-.12,2.72,1,8.21,7.92,17.57,10.8,14.52,19.73,41.32,4.84,53.61s-13.77,29.41,3,28.66a21,21,0,0,0,6.63-1.45A67.93,67.93,0,0,0,155.77,43Z"/><path class="cls-12" d="M121.63,103.05c-7.38,6-11.17,16.38-6.33,20.85s21.59-3.73,21.59-15.64S127.59,98.21,121.63,103.05Z"/></g></g></g></g></g></svg>