<svg xmlns="http://www.w3.org/2000/svg" viewBox="0 0 226.77 226.77"><defs><style>.cls-1{fill:none;}.cls-2{fill:#bd2026;}</style></defs><title>rustina</title><g id="Layer_2" data-name="Layer 2"><g id="Ikonky"><g id="rustina"><rect id="border" class="cls-1" width="226.77" height="226.77"/><path id="logo" class="cls-2" d="M201.41,183.63l-10.18-19.88v-6.16h-2.1v6.16L179,183.63l-2.29,1.09a12.24,12.24,0,0,1-4.22-1v-6.88a3.94,3.94,0,0,1-.7-.68l0,0a1.27,1.27,0,0,0-.37-.48,4.31,4.31,0,0,1-.64-2.28c0-2.3,3.62-3.41,3.62-3.41v-.76a7.52,7.52,0,0,1-2.8-.39c.06,0,.11-.1.19-.15a4.94,4.94,0,0,1-.94-.27,2.06,2.06,0,0,1-.26-.25,3.18,3.18,0,0,0-2.35-1.07c-.13-.05-.25-.11-.38-.15V154.58s.09-4.44,2-5.94v-.8h-3.2v-3.29a2,2,0,0,0-1.28-1.85.94.94,0,0,1,0-.16c-.44,0-.91,0-1.31,0V130.44h1.88v-2.83h-1c8.76-8.92-9-14.27-9.38-23.84h0v0c0-.25.05-.5.08-.75a1.1,1.1,0,0,0,.51-.9,1.13,1.13,0,0,0-.95-1.08v-.44a.49.49,0,0,0,.28-.43.51.51,0,0,0-.28-.43v-2.3h.71V97h-.71V91.9a.43.43,0,0,0,.22-.2h2.28v-.49h-2.27a.54.54,0,0,0-.23-.22v-.52h1.1v-.41h-1.1V88h-.51v2.1h-1.1v.41h1.1V91a.54.54,0,0,0-.23.22h-2.27v.49h2.28a.43.43,0,0,0,.22.2V97h-.71v.41h.71v2.3a.5.5,0,0,0-.27.43.48.48,0,0,0,.27.43V101a1.12,1.12,0,0,0-.94,1.08,1.09,1.09,0,0,0,.5.9c0,.25.07.5.08.75v0h0c-.42,9.57-18.14,14.92-9.38,23.84h-.1v.09h-.26c.09.08.15.16.24.24-.32.61-1,.87-.72,2,.15.76,2,0,1.8,1,0,4.34,1.47,9.93-1.8,11.88-.36,1.13.8,3.69-.72,3.74-1.5-2.2,1.27-4.62-.36-6.11,6.08-7-5.33-10-6.84-15.28v-.11h-.5v-2.23h.7v-.41h-.7V117.4a.56.56,0,0,0,.22-.21h2.27v-.48h-2.26a.54.54,0,0,0-.23-.22V116h1.09v-.42h-1.09v-.15h.59v-.48h-.59v-1.46h-.52v1.46h-1.15a.53.53,0,0,0-.24-.23v-.52h1.1v-.41h-1.1v-2.09h-.51v2.09h-1.1v.41h1.1v.52a.51.51,0,0,0-.23.23h-2.27V115c-1.43-2.59-1.11-7.34-2.5-10.49-.23-.51-1-.85-1.09-1.36-.32-1.2.08-3-.36-4.07-.29-.74-.94-.65-1.08-1.36,0-.23-.06-.43-.09-.65h-.7l.38-.89s-1.6-7.08,2-9.73H126v-1h-1.27V79.67l-1.8-1.35-5.78-19.57h-.89V47.17h.25V46.09a9,9,0,0,0,1.62-1.25c4.61-4.7-4.72-7.52-5-12.56h0v0a2.85,2.85,0,0,1,0-.4.57.57,0,0,0,.26-.47.6.6,0,0,0-.4-.55V29.6a.51.51,0,0,0,.28-.43.49.49,0,0,0-.28-.43V26.43h.71V26h-.71V21a.56.56,0,0,0,.22-.21h2.28v-.48h-2.27a.51.51,0,0,0-.23-.23v-.52h1.1V19.1h-1.1V17h-.51V19.1h-1.1v.41h1.1V20a.53.53,0,0,0-.24.23H110v.48h2.27a.58.58,0,0,0,.23.21V26h-.71v.41h.71v2.31a.49.49,0,0,0-.28.43.51.51,0,0,0,.28.43v1.27a.56.56,0,0,0-.09,1c0,.14,0,.27,0,.4v0h0c-.22,5-9.56,7.86-4.94,12.56a8.13,8.13,0,0,0,1.62,1.25v1.08h.24V58.75h-.89l-5.78,19.57L101,79.67v5.74H99.68v1H98.43c3.56,2.65,1.95,9.73,1.95,9.73l.39.89h-.52c-.21.13-4.8,19.37-4.83,19.32-1.52.28-1.41,3-4,2.72a.75.75,0,0,0,0,.52h2.15s0,6.89,0,7c-2.43-1.9-4.51-6.2-2.88-9.85a5.42,5.42,0,0,1-1-2.67h-.06V112.3a.51.51,0,0,0,.28-.43.49.49,0,0,0-.28-.43v-2.31h.71v-.41h-.71v-5.07a.5.5,0,0,0,.22-.21h2.28V103H89.94a.57.57,0,0,0-.23-.23v-.52h1.1v-.41h-1.1V99.71H89.2v2.09H88.1v.41h1.1v.52A.66.66,0,0,0,89,103H86.7v.48H89a.5.5,0,0,0,.22.21v5.07h-.71v.41h.71v2.31a.47.47,0,0,0-.28.43.49.49,0,0,0,.28.43v1.84a5.42,5.42,0,0,1-1,2.6c2.34,7.56-4.8,11.25-9,15v-2.22a.76.76,0,0,1,.25-.18h1.19a2.64,2.64,0,0,0,0-1.17v-1c7.58-8.61-9.44-13.94-9.85-23.32h0v0c0-.25,0-.5.08-.75a1.09,1.09,0,0,0,.5-.9,1.12,1.12,0,0,0-.94-1.08v-.44a.48.48,0,0,0,.27-.43.5.5,0,0,0-.27-.43v-2.3h.71V97h-.71V91.9a.47.47,0,0,0,.22-.2h2.28v-.49H70.65a.54.54,0,0,0-.23-.22v-.52h1.1v-.41h-1.1V88h-.51v2.1h-1.1v.41h1.1V91a.64.64,0,0,0-.24.22H67.41v.49h2.27a.5.5,0,0,0,.23.2V97H69.2v.41h.71v2.3a.51.51,0,0,0-.28.43.49.49,0,0,0,.28.43V101a1.13,1.13,0,0,0-1,1.08,1.1,1.1,0,0,0,.51.9c0,.25.06.5.08.75v0h0c-.41,9.32-17.22,14.64-10,23.16v2.82h1.88v12.11h-.52a2,2,0,0,0-2.11,2v3.29H55.6v.79c1.88,1.51,2,6,2,6v12.51a3.36,3.36,0,0,0-2.73,1.07c-1,1.24-3.81,1.06-3.81,1.06v.75s3.62,1.12,3.62,3.42A4.34,4.34,0,0,1,53,176.14v7c-1.37.3-2.45.87-3.82,1.17l-1.32-.63L37.64,163.75v-6.16h-2.1v6.16L25.36,183.63l-4.87,2.31v.8h3.09v23H203.19v-23h3.09v-.8ZM133.7,125.12v-.86a.49.49,0,0,0,.28-.43.47.47,0,0,0-.28-.43v-2.31h.71v-.4h-.71v-3.5h1.17a.5.5,0,0,0,.22.21v5.08h-.71v.41h.71v2.23Zm.23-9.72h1.16v.15H134V116h1.09v.52a.49.49,0,0,0-.23.22H133.7v-1.1A.58.58,0,0,0,133.93,115.4Zm-2.14,13.9c-.82-5.58,2-10.66-1.08-13.58h.64v-.32H133a.5.5,0,0,0,.22.21v1.1h-.59v.48h.59v3.5h-.71v.4h.71v2.31a.48.48,0,0,0-.27.43.5.5,0,0,0,.27.43v.86h-.12A8.48,8.48,0,0,1,131.79,129.3Z"/></g></g></g></svg>