<svg xmlns="http://www.w3.org/2000/svg" viewBox="0 0 226.77 226.77"><defs><style>.cls-1{fill:none;}</style></defs><title>telocvik</title><g id="Layer_2" data-name="Layer 2"><g id="Ikonky"><g id="telocvik"><rect id="border" class="cls-1" width="226.77" height="226.77"/><g id="logo"><path d="M113.39,58.21A13.57,13.57,0,1,1,99.82,71.78,13.6,13.6,0,0,1,113.39,58.21Z"/><rect x="49.4" y="38.29" width="127.35" height="5.48"/><rect x="178.49" y="17.01" width="11.45" height="46.06"/><rect x="35.96" y="17.01" width="11.45" height="46.06"/><rect x="27.86" y="28.21" width="6.35" height="23.78"/><rect x="192.56" y="28.58" width="6.35" height="23.78"/><polyline points="133.68 105.52 133.68 209.76 120.11 209.76 120.11 161.63 106.66 161.63 106.66 209.76 93.09 209.76 93.09 105.52"/><rect x="106.78" y="65.34" width="66.73" height="13.57" transform="translate(19.87 174) rotate(-67.5)"/><rect x="93.09" y="91.95" width="40.58" height="13.57"/><rect x="79.78" y="38.74" width="13.57" height="66.73" transform="translate(-21 38.62) rotate(-22.5)"/></g></g></g></g></svg>